<svg xmlns="http://www.w3.org/2000/svg" viewBox="0 0 166.45 166.49"><defs><style>.cls-1{font-size:18px;font-family:Roobert-Light, Roobert;font-weight:300;}</style></defs><title>Scroll down circleldpi</title><g id="Layer_2" data-name="Layer 2"><g id="Scroll_down_big" data-name="Scroll down big"><g id="Scroll_down_circle" data-name="Scroll down circle"><text class="cls-1" transform="matrix(0.93, -0.37, 0.37, 0.93, 58.71, 36.66)">S</text><text class="cls-1" transform="translate(69.73 32.27) rotate(-8)">C</text><text class="cls-1" transform="translate(83.34 30.57) rotate(6.44)">R</text><text class="cls-1" transform="translate(95.45 31.88) rotate(20.97)">O</text><text class="cls-1" transform="matrix(0.82, 0.57, -0.57, 0.82, 109.23, 37.59)">L</text><text class="cls-1" transform="translate(117.8 43.68) rotate(46.21)">L</text><text class="cls-1" transform="translate(124.94 51.56) rotate(55.21)"> </text><text class="cls-1" transform="matrix(0.47, 0.88, -0.88, 0.47, 128.23, 56.44)"> </text><text class="cls-1" transform="matrix(0.31, 0.95, -0.95, 0.31, 131.13, 61.37)">D</text><text class="cls-1" transform="translate(135.14 73.76) rotate(87.12)">O</text><text class="cls-1" transform="translate(136.12 87.69) rotate(104.51)">W</text><text class="cls-1" transform="matrix(-0.53, 0.85, -0.85, -0.53, 130.88, 105.69)">N</text><text class="cls-1" transform="matrix(-0.67, 0.74, -0.74, -0.67, 123.34, 116.91)"> </text><text class="cls-1" transform="matrix(-0.75, 0.66, -0.66, -0.75, 119.32, 121.2)"> </text><text class="cls-1" transform="matrix(-0.82, 0.57, -0.57, -0.82, 114.86, 124.99)">.</text><text class="cls-1" transform="matrix(-0.88, 0.47, -0.47, -0.88, 110.04, 128.24)"> </text><text class="cls-1" transform="matrix(-0.95, 0.32, -0.32, -0.95, 105.05, 131.1)">S</text><text class="cls-1" transform="translate(93.8 134.88) rotate(175.22)">C</text><text class="cls-1" transform="translate(80.11 135.82) rotate(-170.32)">R</text><text class="cls-1" transform="translate(68.09 133.82) rotate(-155.81)">O</text><text class="cls-1" transform="translate(54.67 127.36) rotate(-142.07)">L</text><text class="cls-1" transform="translate(46.47 120.59) rotate(-133.12)"> </text><text class="cls-1" transform="translate(42.51 116.24) rotate(-126.64)"> </text><text class="cls-1" transform="translate(38.92 111.79) rotate(-116.23)">D</text><text class="cls-1" transform="translate(33.18 100.09) rotate(-101.17)">O</text><text class="cls-1" transform="matrix(0.11, -0.99, 0.99, 0.11, 30.2, 86.45)">W</text><text class="cls-1" transform="translate(32.79 67.89) rotate(-66.35)">N</text><text class="cls-1" transform="matrix(0.56, -0.83, 0.83, 0.56, 38.64, 55.7)"> </text><text class="cls-1" transform="matrix(0.65, -0.76, 0.76, 0.65, 42, 50.88)"> </text><text class="cls-1" transform="translate(45.87 46.48) rotate(-43.12)">.</text></g></g></g></svg>