<svg xmlns="http://www.w3.org/2000/svg" viewBox="0 0 204.97 110.16"><defs><style>.cls-1{fill:#fff;}</style></defs><title>logoldpi</title><g id="Layer_2" data-name="Layer 2"><g id="Layer_2-2" data-name="Layer 2"><g id="logo"><path class="cls-1" d="M2,1.73H31.78v6.2H9V23.17H31.78v6.2H9V75.75H2Z"/><path class="cls-1" d="M18.33,43h6.91V69.3H47.49v6.27H18.33Z"/><path class="cls-1" d="M100.94,57.18H92.53L88.69,47,79.54,22.48,70.38,47,66.54,57.18h-8.4L62,47,79.54,0,97.12,47Z"/><rect class="cls-1" x="57.37" y="69.2" width="44" height="6.55"/><polygon class="cls-1" points="131.39 1.28 114.17 41.45 131.39 41.45 122.78 75.05 149.37 32.71 128.59 32.71 145.51 1.28 131.39 1.28"/><rect class="cls-1" x="166.37" y="0.86" width="7" height="18.72"/><rect class="cls-1" x="195.37" y="0.86" width="7" height="73.02"/><rect class="cls-1" x="166.37" y="47.66" width="7" height="26.21"/><rect class="cls-1" x="177.59" y="8.36" width="6.55" height="29" transform="translate(158.01 203.73) rotate(-90)"/><path class="cls-1" d="M0,100.36a10,10,0,0,1,9.81-9.84,9.46,9.46,0,0,1,6.62,2.91l-2.19,3a6.49,6.49,0,0,0-4.47-2,6,6,0,0,0,0,12,6.51,6.51,0,0,0,4.49-2.16l2.18,3.07a8.93,8.93,0,0,1-6.55,2.9A9.91,9.91,0,0,1,0,100.36Z"/><path class="cls-1" d="M51.64,107.16H44.08l-1.21,2.63h-4.1l9-19.36h.12l9,19.36H52.83Zm-1.48-3.24-2.3-5-2.31,5Z"/><path class="cls-1" d="M80.43,90.9h6.63a6.38,6.38,0,1,1,0,12.75H84.23v6.14h-3.8Zm9.48,6.35a2.73,2.73,0,0,0-2.85-2.59H84.23v5.23h2.83A2.75,2.75,0,0,0,89.91,97.25Z"/><path class="cls-1" d="M125.4,107.16h-7.56l-1.21,2.63h-4.1l9-19.36h.12l9,19.36h-4.12Zm-1.48-3.24-2.3-5-2.3,5Z"/><path class="cls-1" d="M169.52,100.37c0,5.86-3.73,9.42-9.83,9.42h-5.5V90.91h5.5C165.79,90.89,169.52,94.48,169.52,100.37Zm-3.83,0c0-3.54-2.27-5.7-6-5.7H158V106h1.73C163.43,106,165.69,103.88,165.69,100.36Z"/><path class="cls-1" d="M197.38,94.64v3.69h6.51v3.79h-6.51V106H205v3.77H193.58V90.9H205v3.74Z"/></g></g></g></svg>